HIERARCHY
ROOT Hips
{
  OFFSET 5.84602e-005 68.8428 3.50346
  CHANNELS 6 Xposition Yposition Zposition Zrotation Xrotation Yrotation
  JOINT Spine
  {
    OFFSET 0 8.597 -4.6522
    CHANNELS 3 Zrotation Xrotation Yrotation
    JOINT Spine1
    {
      OFFSET 0 7.8454 0.4098
      CHANNELS 3 Zrotation Xrotation Yrotation
      JOINT Spine2
      {
        OFFSET 0 9.7078 -2.1609
        CHANNELS 3 Zrotation Xrotation Yrotation
        JOINT Neck
        {
          OFFSET 0 21.8761 -0.4549
          CHANNELS 3 Zrotation Xrotation Yrotation
          JOINT Head
          {
            OFFSET 0 12.3537 3.3602
            CHANNELS 3 Zrotation Xrotation Yrotation
            End Site
            {
              OFFSET 0.0001 18.9506 0.5657
            }
          }
        }
        JOINT LeftShoulder
        {
          OFFSET 2.2086 21.1115 7.2329
          CHANNELS 3 Zrotation Xrotation Yrotation
          JOINT LeftArm
          {
            OFFSET 13.1193 3.0282 -4.8998
            CHANNELS 3 Zrotation Xrotation Yrotation
            JOINT LeftForeArm
            {
              OFFSET 27.4081 -0.0973053 -0.2375
              CHANNELS 3 Zrotation Xrotation Yrotation
              JOINT LeftHand
              {
                OFFSET 22.8641 0.0662994 -0.1369
                CHANNELS 3 Zrotation Xrotation Yrotation
                JOINT LeftHandIndex1
                {
                  OFFSET 8.8614 0.775009 2.4612
                  CHANNELS 3 Zrotation Xrotation Yrotation
                  JOINT LeftHandIndex2
                  {
                    OFFSET 3.3146 -0.808304 0.5841
                    CHANNELS 3 Zrotation Xrotation Yrotation
                    JOINT LeftHandIndex3
                    {
                      OFFSET 2.2628 -0.552002 0.3989
                      CHANNELS 3 Zrotation Xrotation Yrotation
                      End Site
                      {
                        OFFSET 1.6102 -0.4807 0.2612
                      }
                    }
                  }
                }
                JOINT LeftHandMiddle1
                {
                  OFFSET 8.9937 0.895004 0.2143
                  CHANNELS 3 Zrotation Xrotation Yrotation
                  JOINT LeftHandMiddle2
                  {
                    OFFSET 4.0984 0.0113983 -0.0242
                    CHANNELS 3 Zrotation Xrotation Yrotation
                    JOINT LeftHandMiddle3
                    {
                      OFFSET 2.2716 0.00689697 -0.0138001
                      CHANNELS 3 Zrotation Xrotation Yrotation
                      End Site
                      {
                        OFFSET 2.0404 -0.1441 0.0027
                      }
                    }
                  }
                }
                JOINT LeftHandRing1
                {
                  OFFSET 8.5234 0.597198 -2.0164
                  CHANNELS 3 Zrotation Xrotation Yrotation
                  JOINT LeftHandRing2
                  {
                    OFFSET 3.7188 -0.188293 -0.2328
                    CHANNELS 3 Zrotation Xrotation Yrotation
                    JOINT LeftHandRing3
                    {
                      OFFSET 2.1191 -0.106598 -0.1332
                      CHANNELS 3 Zrotation Xrotation Yrotation
                      End Site
                      {
                        OFFSET 1.8737 -0.2304 -0.0886
                      }
                    }
                  }
                }
                JOINT LeftHandPinky1
                {
                  OFFSET 7.9094 -0.601089 -3.4825
                  CHANNELS 3 Zrotation Xrotation Yrotation
                  JOINT LeftHandPinky2
                  {
                    OFFSET 2.2874 -0.477005 -0.6314
                    CHANNELS 3 Zrotation Xrotation Yrotation
                    JOINT LeftHandPinky3
                    {
                      OFFSET 1.6774 -0.349396 -0.4633
                      CHANNELS 3 Zrotation Xrotation Yrotation
                      End Site
                      {
                        OFFSET 1.4888 -0.4091 -0.3416
                      }
                    }
                  }
                }
                JOINT LeftHandThumb1
                {
                  OFFSET 1.833 -1.3875 1.3896
                  CHANNELS 3 Zrotation Xrotation Yrotation
                  JOINT LeftHandThumb2
                  {
                    OFFSET 3.4129 -1.121 2.5732
                    CHANNELS 3 Zrotation Xrotation Yrotation
                    JOINT LeftHandThumb3
                    {
                      OFFSET 2.2474 -0.804199 1.6192
                      CHANNELS 3 Zrotation Xrotation Yrotation
                      End Site
                      {
                        OFFSET 1.6527 -0.5689 1.1317
                      }
                    }
                  }
                }
              }
            }
          }
        }
        JOINT RightShoulder
        {
          OFFSET -2.2086 21.1115 7.2329
          CHANNELS 3 Zrotation Xrotation Yrotation
          JOINT RightArm
          {
            OFFSET -13.1216 3.0287 -4.9007
            CHANNELS 3 Zrotation Xrotation Yrotation
            JOINT RightForeArm
            {
              OFFSET -27.4081 -0.0973053 -0.2375
              CHANNELS 3 Zrotation Xrotation Yrotation
              JOINT RightHand
              {
                OFFSET -22.8641 0.0664063 -0.1369
                CHANNELS 3 Zrotation Xrotation Yrotation
                JOINT RightHandIndex1
                {
                  OFFSET -8.8614 0.774994 2.4612
                  CHANNELS 3 Zrotation Xrotation Yrotation
                  JOINT RightHandIndex2
                  {
                    OFFSET -3.3146 -0.808304 0.5841
                    CHANNELS 3 Zrotation Xrotation Yrotation
                    JOINT RightHandIndex3
                    {
                      OFFSET -2.2628 -0.552002 0.3989
                      CHANNELS 3 Zrotation Xrotation Yrotation
                      End Site
                      {
                        OFFSET -1.6102 -0.4807 0.2612
                      }
                    }
                  }
                }
                JOINT RightHandMiddle1
                {
                  OFFSET -8.9937 0.894989 0.2143
                  CHANNELS 3 Zrotation Xrotation Yrotation
                  JOINT RightHandMiddle2
                  {
                    OFFSET -4.0984 0.0113983 -0.0242
                    CHANNELS 3 Zrotation Xrotation Yrotation
                    JOINT RightHandMiddle3
                    {
                      OFFSET -2.2716 0.00691223 -0.0138001
                      CHANNELS 3 Zrotation Xrotation Yrotation
                      End Site
                      {
                        OFFSET -2.0404 -0.1441 0.0027
                      }
                    }
                  }
                }
                JOINT RightHandRing1
                {
                  OFFSET -8.5234 0.597198 -2.0164
                  CHANNELS 3 Zrotation Xrotation Yrotation
                  JOINT RightHandRing2
                  {
                    OFFSET -3.7188 -0.188309 -0.2328
                    CHANNELS 3 Zrotation Xrotation Yrotation
                    JOINT RightHandRing3
                    {
                      OFFSET -2.1191 -0.106598 -0.1332
                      CHANNELS 3 Zrotation Xrotation Yrotation
                      End Site
                      {
                        OFFSET -1.8737 -0.2304 -0.0886
                      }
                    }
                  }
                }
                JOINT RightHandPinky1
                {
                  OFFSET -7.9094 -0.601105 -3.4825
                  CHANNELS 3 Zrotation Xrotation Yrotation
                  JOINT RightHandPinky2
                  {
                    OFFSET -2.2874 -0.477005 -0.6314
                    CHANNELS 3 Zrotation Xrotation Yrotation
                    JOINT RightHandPinky3
                    {
                      OFFSET -1.6774 -0.349396 -0.4633
                      CHANNELS 3 Zrotation Xrotation Yrotation
                      End Site
                      {
                        OFFSET -1.4888 -0.4091 -0.3416
                      }
                    }
                  }
                }
                JOINT RightHandThumb1
                {
                  OFFSET -1.833 -1.38751 1.3896
                  CHANNELS 3 Zrotation Xrotation Yrotation
                  JOINT RightHandThumb2
                  {
                    OFFSET -3.41299 -1.12099 2.5732
                    CHANNELS 3 Zrotation Xrotation Yrotation
                    JOINT RightHandThumb3
                    {
                      OFFSET -2.24741 -0.804108 1.6192
                      CHANNELS 3 Zrotation Xrotation Yrotation
                      End Site
                      {
                        OFFSET -1.6527 -0.5689 1.1317
                      }
                    }
                  }
                }
              }
            }
          }
        }
      }
    }
  }
  JOINT RightUpLeg
  {
    OFFSET -9.1966 3.8861 -0.7581
    CHANNELS 3 Zrotation Xrotation Yrotation
    JOINT RightLeg
    {
      OFFSET -0.7359 -41.0265 0
      CHANNELS 3 Zrotation Xrotation Yrotation
      JOINT RightFoot
      {
        OFFSET 0 -40.2855 0
        CHANNELS 3 Zrotation Xrotation Yrotation
        JOINT RightToeBase
        {
          OFFSET 0 -5.6122 11.7359
          CHANNELS 3 Zrotation Xrotation Yrotation
          End Site
          {
            OFFSET 0 0 7.8731
          }
        }
      }
    }
  }
  JOINT LeftUpLeg
  {
    OFFSET 9.1965 3.8864 -0.7581
    CHANNELS 3 Zrotation Xrotation Yrotation
    JOINT LeftLeg
    {
      OFFSET 0.7359 -41.0268 0
      CHANNELS 3 Zrotation Xrotation Yrotation
      JOINT LeftFoot
      {
        OFFSET 0 -40.2855 0
        CHANNELS 3 Zrotation Xrotation Yrotation
        JOINT LeftToeBase
        {
          OFFSET 0 -5.6122 11.7359
          CHANNELS 3 Zrotation Xrotation Yrotation
          End Site
          {
            OFFSET 0 0 7.8731
          }
        }
      }
    }
  }
}
MOTION
Frames:	4
Frame Time:	0.0333333
5.84602e-005 68.8428 3.50346 0 0 -0 0 0 -0 0 0 -0 0 0 -0 0 0 -0 0 0 -0 0 0 -0 0 0 -0 0 0 -0 0 0 -0 0 0 -0 0 0 -0 0 0 -0 0 0 -0 -0.0146107 -8.87603e-005 -2.63497e-007 2.99804e-018 -2.42657e-020 -1.42182e-022 0 0 -0 -0.0187562 -0.001176 5.858e-005 5.06224e-018 3.88251e-019 1.21329e-020 0 0 -0 -0.012269 -0.00324817 0.000675346 -1.74678e-018 3.88251e-019 -0 0 0 -0 0 0 -0 0 0 -0 0 0 -0 0 0 -0 0 0 -0 0 0 -0 0 0 -0 0 0 -0 0 0 -0 0 0 -0 0.0149955 -9.10982e-005 2.64101e-007 -9.69331e-018 1.21329e-020 -4.7394e-023 0 0 -0 0.0189956 -0.00119102 -5.96516e-005 -5.41541e-019 0 2.42657e-020 0 0 -0 0.0122698 -0.00324857 -0.000673756 -2.00796e-019 0 -1.94126e-019 0 0 -0 0 0 -0 0 0 -0 3.39842 1.33031 -0.0637918 -5.65207e-008 0.834868 -0.000436188 -3.39935 -2.16518 -0.0642563 -8.89002e-024 -1.18485e-023 -1.48106e-024 -3.39844 1.35642 0.0640283 -3.18788e-007 0.782166 -0.000588827 3.39931 -2.13858 0.0634662 1.1399e-023 0 -0 
29.4363 20.9885 8.49824 -0 -72.5496 -0 -0.0367411 0.641334 -0.117257 -0.0721763 1.28271 -0.234124 -0.0721762 1.2827 -0.234124 1.04988e-006 29.6623 -3.62305e-006 3.10281e-008 6.69899 1.10806e-007 -13.7719 5.43315 1.58092 -37.3785 -9.97185 -19.0143 -7.86163 31.6199 -22.5521 -6.34326 3.19797 3.90658 2.05069e-006 2.20814e-006 -2.1077e-006 -1.98562e-006 2.42813e-006 6.23619e-007 1.21407e-006 9.92809e-007 -5.99056e-007 2.05069e-006 2.20814e-006 -2.1077e-006 -0.0146714 -9.11339e-005 5.12228e-007 1.21403e-006 9.92885e-007 -5.9893e-007 2.05069e-006 2.20814e-006 -2.1077e-006 -0.0188059 -0.00117992 5.26377e-005 1.21401e-006 9.92903e-007 -5.98906e-007 2.05069e-006 2.20814e-006 -2.1077e-006 -0.0122375 -0.0032313 0.00067375 8.37664e-007 1.21577e-006 -1.5086e-006 2.05069e-006 2.20814e-006 -2.1077e-006 -1.98562e-006 2.42813e-006 6.23619e-007 1.21407e-006 9.92809e-007 -5.99056e-007 13.7654 5.4349 -1.58821 37.3757 -9.97337 19.0118 7.8601 31.6184 22.5544 6.33637 3.19582 -3.91077 -1.21784e-006 9.7952e-007 6.09719e-007 1.21784e-006 -9.7952e-007 -6.09719e-007 -1.21784e-006 9.7952e-007 6.09719e-007 -1.21784e-006 9.7952e-007 6.09719e-007 0.0149871 -9.61254e-005 -5.88172e-006 -1.2178e-006 9.796e-007 6.09592e-007 -1.21784e-006 9.7952e-007 6.09719e-007 0.0189989 -0.00118941 -5.71014e-005 -7.95364e-007 1.27712e-006 1.58985e-006 -1.21784e-006 9.7952e-007 6.09719e-007 0.0123364 -0.00327113 -0.000675967 -1.21779e-006 9.7957e-007 6.09646e-007 -1.21784e-006 9.7952e-007 6.09719e-007 1.21784e-006 -9.7952e-007 -6.09719e-007 -1.21784e-006 9.7952e-007 6.09719e-007 0.765146 -13.4177 -23.7444 -29.0299 39.7939 18.0108 9.20249 11.3521 1.50921 1.6162e-006 -1.38346e-007 -2.89534e-006 -0.764169 -13.4187 23.7473 29.0274 39.7945 -18.0125 -9.20049 11.3521 -1.51739 1.84656e-006 -2.76543e-007 3.90027e-007 
42.6826 -0.381314 7.13838 -180 -74.5793 -180 -0.0628058 1.03557 -0.167134 -0.12262 2.07145 -0.333215 -0.122619 2.07143 -0.333215 -8.44859e-006 42.8398 2.29749e-005 2.42676e-008 9.54833 1.05907e-009 -19.7566 7.85163 2.55283 -56.4649 -13.4687 -27.9693 -1.34262 41.7352 -39.355 -9.10441 4.57532 6.03933 -3.18055e-015 9.54166e-015 3.18055e-015 -2.06946e-006 1.37588e-006 1.34377e-007 -1.12477e-006 1.82436e-007 -6.36334e-007 -3.18055e-015 9.54166e-015 3.18055e-015 -0.0146151 -8.97537e-005 9.50235e-007 3.18055e-015 -6.36111e-015 -9.54166e-015 -3.18055e-015 9.54166e-015 3.18055e-015 -0.0187613 -0.00117582 5.92214e-005 3.18055e-015 6.36111e-015 6.36111e-015 -3.18055e-015 9.54166e-015 3.18055e-015 -0.0122785 -0.00325145 0.000675435 -6.36111e-015 -3.18055e-015 -3.18055e-015 -3.18055e-015 9.54166e-015 3.18055e-015 -2.06946e-006 1.37588e-006 1.34377e-007 -1.12477e-006 1.82436e-007 -6.36334e-007 19.766 7.84387 -2.53906 56.4597 -13.4722 27.9645 1.33981 41.7386 39.3361 9.11611 4.58261 -6.03704 1.8449e-007 -3.2545e-007 -2.04585e-007 -3.6898e-007 6.509e-007 4.0917e-007 1.8449e-007 -3.2545e-007 -2.04585e-007 1.8449e-007 -3.2545e-007 -2.04585e-007 0.0149829 -9.04539e-005 5.63622e-006 1.84492e-007 -3.25477e-007 -2.04543e-007 1.8449e-007 -3.2545e-007 -2.04585e-007 0.0190049 -0.00119281 -5.97249e-005 1.84491e-007 -3.25484e-007 -2.04533e-007 1.8449e-007 -3.2545e-007 -2.04585e-007 0.0122656 -0.003246 -0.000673599 1.84488e-007 -3.25471e-007 -2.04556e-007 1.8449e-007 -3.2545e-007 -2.04585e-007 -3.6898e-007 6.509e-007 4.0917e-007 1.8449e-007 -3.2545e-007 -2.04585e-007 -3.98412 -17.7652 -35.3641 -53.346 52.8437 35.1618 14.6314 17.5386 2.05559 -3.65683e-006 -7.78594e-007 -3.94015e-007 3.96431 -17.767 35.3376 53.3434 52.8438 -35.1653 -14.6519 17.5387 -2.03797 -2.11536e-006 6.00247e-007 -9.67771e-007 
39.7391 4.61968 7.58387 -180 -81.3866 -180 -0.0577472 1.18296 -0.155694 -0.112314 2.36611 -0.310294 -0.112314 2.36607 -0.310294 -3.10209e-006 39.5328 1.01321e-005 -9.11431e-008 8.54799 -2.84588e-008 -17.7216 7.26475 2.88868 -52.3859 -12.5595 -25.9227 -3.76596 39.7778 -36.9859 -7.95216 4.16155 6.37585 2.35534e-006 -4.78104e-007 2.70119e-006 -1.87678e-006 -1.32262e-006 4.26292e-006 -9.76947e-007 2.58621e-008 3.44852e-006 2.35534e-006 -4.78104e-007 2.70119e-006 -0.0146121 -9.02933e-005 3.67226e-006 -9.76726e-007 2.54237e-008 3.44853e-006 2.35534e-006 -4.78104e-007 2.70119e-006 -0.0187843 -0.00117812 5.88743e-005 -9.76631e-007 2.53149e-008 3.44854e-006 2.35534e-006 -4.78104e-007 2.70119e-006 -0.0123584 -0.00327449 0.000688927 -9.76664e-007 2.5545e-008 3.44854e-006 2.35534e-006 -4.78104e-007 2.70119e-006 -1.87678e-006 -1.32262e-006 4.26292e-006 -9.76947e-007 2.58621e-008 3.44852e-006 17.769 7.23615 -2.8256 52.3785 -12.565 25.9156 3.75967 39.7913 36.9239 8.00819 4.18978 -6.35635 -3.19272e-007 4.70918e-007 2.93682e-007 -1.59636e-007 2.35459e-007 1.46841e-007 -3.19272e-007 4.70918e-007 2.93682e-007 -3.19272e-007 4.70918e-007 2.93682e-007 0.0150317 -9.05403e-005 -6.3466e-007 -3.1927e-007 4.70956e-007 2.93621e-007 -3.19272e-007 4.70918e-007 2.93682e-007 0.0189962 -0.00119165 -6.34688e-005 -3.19267e-007 4.70966e-007 2.93607e-007 -3.19272e-007 4.70918e-007 2.93682e-007 0.0122836 -0.00324831 -0.000675372 -3.19265e-007 4.70947e-007 2.93641e-007 -3.19272e-007 4.70918e-007 2.93682e-007 -1.59636e-007 2.35459e-007 1.46841e-007 -3.19272e-007 4.70918e-007 2.93682e-007 -2.6097 -16.2565 -32.4708 -46.8814 50.3139 30.4292 13.6007 16.1416 1.72796 -4.54486e-007 8.77491e-007 -1.94286e-006 2.54885 -16.2552 32.3826 46.876 50.3129 -30.4314 -13.6693 16.1414 -1.65029 2.71487e-007 -1.80583e-007 7.83086e-007 
